<svg width="24" height="24" viewBox="0 0 24 24" fill="none" xmlns="http://www.w3.org/2000/svg">
<path fill-rule="evenodd" clip-rule="evenodd" d="M2.64185 5.97503C2.64185 5.23865 3.2388 4.64169 3.97518 4.64169H19.9752C20.7116 4.64169 21.3085 5.23865 21.3085 5.97503C21.3085 6.71141 20.7116 7.30836 19.9752 7.30836H3.97518C3.2388 7.30836 2.64185 6.71141 2.64185 5.97503ZM2.64185 11.975C2.64185 11.2386 3.2388 10.6417 3.97518 10.6417H19.9752C20.7116 10.6417 21.3085 11.2386 21.3085 11.975C21.3085 12.7114 20.7116 13.3084 19.9752 13.3084H3.97518C3.2388 13.3084 2.64185 12.7114 2.64185 11.975ZM2.64185 17.975C2.64185 17.2386 3.2388 16.6417 3.97518 16.6417H19.9752C20.7116 16.6417 21.3085 17.2386 21.3085 17.975C21.3085 18.7114 20.7116 19.3084 19.9752 19.3084H3.97518C3.2388 19.3084 2.64185 18.7114 2.64185 17.975Z" fill="white"/>
</svg>
